<svg>
    <symbol id="fill" width="100%" height="100%" viewBox="0 0 329 329" fill="none" xmlns="http://www.w3.org/2000/svg">
        <g>
            <path d="M329.208,126.666c-1.765-5.431-6.459-9.389-12.109-10.209l-95.822-13.922l-42.854-86.837 c-2.527-5.12-7.742-8.362-13.451-8.362c-5.71,0-10.925,3.242-13.451,8.362l-42.851,86.836l-95.825,13.922 c-5.65,0.821-10.345,4.779-12.109,10.209c-1.764,5.431-0.293,11.392,3.796,15.377l69.339,67.582L57.496,305.07 c-0.965,5.628,1.348,11.315,5.967,14.671c2.613,1.899,5.708,2.865,8.818,2.865c2.387,0,4.784-0.569,6.979-1.723l85.711-45.059 l85.71,45.059c2.208,1.161,4.626,1.714,7.021,1.723c8.275-0.012,14.979-6.723,14.979-15c0-1.152-0.13-2.275-0.376-3.352 l-16.233-94.629l69.339-67.583C329.501,138.057,330.972,132.096,329.208,126.666z" fill="currentColor"/>
        </g>
    </symbol>
    <symbol id="empty" width="100%" height="100%" viewBox="0 0 488 488" fill="none" xmlns="http://www.w3.org/2000/svg">
        <g>
            <path d="M471.563,173.778l-145.5-20.8l-64.4-132c-8-15.4-30-12.2-35.3,0l-64.4,132l-145.6,20.8c-16.4,1-21.6,20.9-10.4,33.2 l105,102.9l-25,144.5c-2.9,17.8,16.7,27.8,28.1,20.8l129.9-68.6l129.9,67.6c13.6,7,29.8-2.8,28.1-19.7l-25-144.6l105-102.9 C494.663,193.478,485.563,175.478,471.563,173.778z M342.663,288.078c-4.2,5.2-6.2,11.4-5.2,17.7l19.7,116.4l-103.9-55.1 c-6.7-2.8-13-2.8-18.7,0l-103.9,55.1l19.7-116.4c1-7.3-1-13.5-5.2-17.7l-84.1-82.1l116.4-16.6c6.2-1,11.4-4.2,14.6-10.4l52-105 l52,105c3.1,5.2,8.3,9.4,14.6,10.4l116.2,16.6L342.663,288.078z" fill="currentColor"/>
        </g>
    </symbol>
    <symbol id="half" width="100%" height="100%" viewBox="0 0 329 329" fill="none" xmlns="http://www.w3.org/2000/svg">
        <g>
            <path d="M329.208,126.66c-1.765-5.43-6.459-9.388-12.109-10.209l-95.822-13.922l-42.854-86.837 c-0.047-0.096-0.104-0.185-0.153-0.28c-0.108-0.207-0.219-0.412-0.337-0.614c-0.1-0.173-0.204-0.343-0.311-0.511 c-0.114-0.179-0.231-0.356-0.352-0.53c-0.123-0.176-0.249-0.349-0.378-0.519c-0.12-0.157-0.243-0.312-0.37-0.465 c-0.141-0.169-0.283-0.336-0.43-0.498c-0.132-0.146-0.268-0.289-0.406-0.43c-0.15-0.153-0.302-0.304-0.458-0.45 c-0.151-0.142-0.306-0.28-0.464-0.415c-0.151-0.13-0.303-0.258-0.458-0.382c-0.176-0.14-0.356-0.275-0.539-0.408 c-0.147-0.106-0.294-0.21-0.444-0.311c-0.2-0.134-0.404-0.262-0.611-0.387c-0.145-0.087-0.29-0.172-0.437-0.255 c-0.216-0.121-0.437-0.235-0.66-0.345c-0.15-0.074-0.301-0.146-0.454-0.215c-0.223-0.1-0.448-0.196-0.677-0.286 c-0.167-0.066-0.334-0.128-0.503-0.189c-0.218-0.077-0.438-0.15-0.661-0.218c-0.19-0.058-0.381-0.11-0.573-0.16 c-0.123-0.032-0.241-0.073-0.365-0.102c-0.091-0.021-0.183-0.032-0.274-0.052c-0.203-0.043-0.407-0.08-0.611-0.115 c-0.214-0.036-0.427-0.071-0.641-0.099c-0.2-0.025-0.4-0.043-0.601-0.061c-0.223-0.019-0.445-0.037-0.667-0.046 c-0.191-0.008-0.383-0.008-0.575-0.009c-0.232-0.001-0.464,0-0.696,0.011c-0.184,0.008-0.368,0.023-0.552,0.038 c-0.238,0.019-0.476,0.041-0.712,0.071c-0.182,0.023-0.363,0.054-0.544,0.084c-0.235,0.039-0.468,0.081-0.7,0.131 c-0.081,0.017-0.162,0.027-0.242,0.045c-0.11,0.026-0.216,0.063-0.325,0.091c-0.217,0.056-0.432,0.114-0.645,0.18 c-0.201,0.062-0.398,0.127-0.594,0.196c-0.191,0.067-0.381,0.138-0.569,0.212c-0.209,0.083-0.415,0.17-0.618,0.262 c-0.171,0.077-0.34,0.157-0.508,0.241c-0.207,0.103-0.412,0.209-0.612,0.321c-0.162,0.09-0.321,0.184-0.479,0.279 c-0.194,0.118-0.386,0.238-0.574,0.364c-0.161,0.107-0.319,0.219-0.476,0.333c-0.174,0.126-0.345,0.254-0.513,0.388 c-0.163,0.129-0.321,0.262-0.479,0.398c-0.152,0.132-0.302,0.265-0.449,0.403c-0.159,0.149-0.314,0.302-0.467,0.459 c-0.135,0.139-0.269,0.279-0.399,0.423c-0.148,0.164-0.292,0.332-0.434,0.503c-0.126,0.152-0.248,0.307-0.369,0.463 c-0.129,0.17-0.254,0.341-0.377,0.517c-0.123,0.176-0.241,0.354-0.356,0.535c-0.105,0.166-0.208,0.333-0.307,0.504 c-0.119,0.205-0.232,0.412-0.341,0.623c-0.048,0.093-0.104,0.181-0.151,0.275l-42.851,86.836l-95.825,13.922 c-5.65,0.821-10.345,4.779-12.109,10.209c-1.764,5.431-0.293,11.392,3.796,15.377l69.339,67.582l-16.375,95.446 c-0.965,5.628,1.348,11.315,5.967,14.671c2.614,1.899,5.708,2.865,8.819,2.865c2.387,0,4.784-0.569,6.979-1.723l85.711-45.06 l85.71,45.06c2.195,1.153,4.591,1.723,6.979,1.723c3.11,0,6.205-0.966,8.818-2.865c4.619-3.356,6.933-9.044,5.967-14.671 l-16.373-95.445l69.339-67.583C329.501,138.052,330.972,132.091,329.208,126.66z M229.485,193.641 c-3.536,3.446-5.149,8.412-4.314,13.278l12.568,73.262l-57.768-30.369V86.621l17.893,36.257c2.185,4.427,6.409,7.496,11.294,8.206 l73.547,10.685L229.485,193.641z" fill="currentColor"/>
        </g>
    </symbol>
    <symbol id="cross" width="100%" height="100%" viewBox="0 0 21 21" fill="none" xmlns="http://www.w3.org/2000/svg">
        <g>
            <rect width="28" height="2" rx="1" transform="matrix(0.707108 0.707106 -0.707108 0.707106 1.60669 0.192383)" fill="currentColor"/>
            <rect width="28" height="2" rx="1" transform="matrix(-0.707108 0.707106 -0.707107 -0.707106 21.4058 1.60657)" fill="currentColor"/>
        </g>
    </symbol>
</svg>




